<svg width="112" height="109" viewBox="0 0 112 109" fill="none" xmlns="http://www.w3.org/2000/svg">
<path d="M32 74.4872C49.6731 74.4872 64 59.7183 64 41.5C64 23.2817 49.6731 8.51282 32 8.51282C14.3269 8.51282 0 23.2817 0 41.5C0 59.7183 14.3269 74.4872 32 74.4872Z" fill="#C6C6C6"/>
<path d="M58.4347 41.5C58.4378 45.9831 57.4743 50.4045 55.6214 54.4098C53.7685 58.4151 51.0778 61.8928 47.7651 64.5638C47.5436 64.744 47.3178 64.9195 47.0906 65.0903C42.6608 68.437 37.3949 70.2308 32 70.2308C26.605 70.2308 21.3391 68.437 16.9093 65.0903C16.6821 64.9195 16.4563 64.744 16.2348 64.5638C12.9244 61.8904 10.2354 58.4123 8.38273 54.4075C6.53008 50.4028 5.56519 45.9825 5.56519 41.5C5.56519 37.0175 6.53008 32.5972 8.38273 28.5925C10.2354 24.5877 12.9244 21.1096 16.2348 18.4362C16.4563 18.256 16.6821 18.0805 16.9093 17.9097C21.3391 14.563 26.605 12.7692 32 12.7692C37.3949 12.7692 42.6608 14.563 47.0906 17.9097C47.3178 18.0805 47.5436 18.256 47.7651 18.4362C51.0778 21.1073 53.7685 24.5849 55.6214 28.5902C57.4743 32.5955 58.4378 37.0169 58.4347 41.5Z" fill="#C6C6C6"/>
<path d="M32 68.1026C46.5995 68.1026 58.4348 56.1922 58.4348 41.5C58.4348 26.8078 46.5995 14.8974 32 14.8974C17.4004 14.8974 5.56519 26.8078 5.56519 41.5C5.56519 56.1922 17.4004 68.1026 32 68.1026Z" fill="#B3003F"/>
<path opacity="0.2" d="M32.8492 14.8974C32.4613 14.8974 32.0759 14.9079 31.6922 14.9257C38.1588 15.5165 44.1677 18.6411 48.5014 23.6664C52.835 28.6916 55.1695 35.2418 55.0317 41.9898C54.894 48.7379 52.2943 55.1792 47.7595 60.0087C43.2246 64.8382 37.0937 67.6949 30.6088 67.9999C31.3472 68.0665 32.0941 68.1026 32.8492 68.1026C39.6349 68.1026 46.1427 65.2998 50.941 60.3108C55.7392 55.3219 58.4349 48.5554 58.4349 41.5C58.4349 34.4445 55.7392 27.6781 50.941 22.6891C46.1427 17.7002 39.6349 14.8974 32.8492 14.8974V14.8974Z" fill="#20000A"/>
<path d="M32.0001 12.7692C31.6313 12.7697 31.2778 12.8755 31.017 13.0636C30.7562 13.2517 30.6094 13.5066 30.6088 13.7725V18.1505C30.6088 18.4166 30.7553 18.6718 31.0163 18.86C31.2772 19.0481 31.6311 19.1538 32.0001 19.1538C32.3691 19.1538 32.723 19.0481 32.9839 18.86C33.2448 18.6718 33.3914 18.4166 33.3914 18.1505V13.7725C33.3907 13.5066 33.2439 13.2517 32.9831 13.0636C32.7224 12.8755 32.3689 12.7697 32.0001 12.7692Z" fill="#C6C6C6"/>
<path d="M49.9912 17.4953C49.6392 17.3352 49.2803 17.1791 48.9193 17.0272C48.7026 17.0187 48.486 17.0446 48.2909 17.1025C48.0957 17.1603 47.9288 17.2482 47.8065 17.3573L44.7385 20.0954C44.5521 20.2619 44.4821 20.4665 44.5438 20.6643C44.6056 20.8622 44.7941 21.037 45.0678 21.1504C45.3415 21.2637 45.6781 21.3063 46.0035 21.2687C46.3289 21.2312 46.6164 21.1166 46.8028 20.9501L49.8708 18.212C49.9875 18.1081 50.0597 17.9881 50.0807 17.863C50.1017 17.7378 50.0709 17.6114 49.9912 17.4953Z" fill="#C6C6C6"/>
<path d="M58.3676 32.2873C58.3221 32.2163 58.255 32.1516 58.1701 32.097C58.0852 32.0425 57.9842 31.999 57.8728 31.9692C57.7614 31.9394 57.6419 31.9238 57.521 31.9234C57.4002 31.9229 57.2803 31.9375 57.1684 31.9664L53.4435 32.926C53.2174 32.9844 53.0371 33.0974 52.9422 33.2401C52.8474 33.3828 52.8457 33.5436 52.9376 33.6871C53.0295 33.8306 53.2074 33.9451 53.4323 34.0054C53.6572 34.0657 53.9106 34.0669 54.1369 34.0088L57.8618 33.0492C58.0878 32.9905 58.2679 32.8773 58.3627 32.7346C58.4575 32.5918 58.4593 32.4309 58.3676 32.2873Z" fill="#C6C6C6"/>
<path d="M19.2616 20.0954L16.1936 17.3573C16.0713 17.2482 15.9044 17.1603 15.7092 17.1025C15.5141 17.0446 15.2975 17.0187 15.0808 17.0272C14.7197 17.1791 14.3609 17.3352 14.0089 17.4953C13.9292 17.6114 13.8984 17.7378 13.9194 17.863C13.9404 17.9881 14.0126 18.1081 14.1293 18.212L17.1973 20.9501C17.3837 21.1166 17.6712 21.2312 17.9966 21.2687C18.322 21.3063 18.6586 21.2637 18.9323 21.1504C19.206 21.037 19.3945 20.8622 19.4563 20.6643C19.518 20.4665 19.448 20.2619 19.2616 20.0954Z" fill="#C6C6C6"/>
<path d="M10.5569 32.9259L6.8326 31.9663C6.60632 31.908 6.35282 31.9091 6.12785 31.9694C5.90287 32.0297 5.72484 32.1442 5.63291 32.2878C5.54099 32.4314 5.5427 32.5922 5.63767 32.735C5.73263 32.8778 5.91308 32.9908 6.13932 33.0492L9.86361 34.0088C10.0898 34.0669 10.3432 34.0657 10.5681 34.0054C10.7929 33.9451 10.9708 33.8306 11.0627 33.6871C11.1546 33.5436 11.1529 33.3828 11.0581 33.2401C10.9632 33.0973 10.783 32.9843 10.5569 32.9259V32.9259Z" fill="#C6C6C6"/>
<path d="M32.0001 63.8461C31.6313 63.8464 31.2778 63.917 31.017 64.0424C30.7562 64.1677 30.6094 64.3377 30.6088 64.515V67.4337C30.6088 67.6111 30.7553 67.7812 31.0163 67.9066C31.2772 68.0321 31.6311 68.1025 32.0001 68.1025C32.3691 68.1025 32.723 68.0321 32.9839 67.9066C33.2448 67.7812 33.3914 67.6111 33.3914 67.4337V64.515C33.3907 64.3377 33.2439 64.1677 32.9831 64.0424C32.7224 63.917 32.3689 63.8464 32.0001 63.8461Z" fill="#C6C6C6"/>
<path d="M49.8708 62.6598L46.8028 59.9217C46.7105 59.8393 46.5924 59.7687 46.4552 59.7141C46.3181 59.6594 46.1646 59.6217 46.0035 59.6031C45.8424 59.5845 45.6768 59.5854 45.5163 59.6057C45.3557 59.626 45.2033 59.6654 45.0678 59.7215C44.9322 59.7776 44.8162 59.8494 44.7263 59.9328C44.6364 60.0162 44.5744 60.1095 44.5438 60.2075C44.5132 60.3054 44.5147 60.4061 44.5481 60.5037C44.5815 60.6013 44.6462 60.694 44.7385 60.7764L47.8065 63.5146C47.9288 63.6237 48.0957 63.7115 48.2909 63.7694C48.486 63.8272 48.7026 63.8532 48.9193 63.8446C49.2804 63.6927 49.6391 63.5367 49.9911 63.3765C50.0709 63.2604 50.1017 63.134 50.0807 63.0089C50.0597 62.8837 49.9875 62.7637 49.8708 62.6598Z" fill="#C6C6C6"/>
<path d="M57.8616 47.823L54.1373 46.8634C53.911 46.8051 53.6575 46.8062 53.4325 46.8665C53.2076 46.9268 53.0295 47.0413 52.9376 47.1849C52.8457 47.3285 52.8474 47.4893 52.9424 47.6321C53.0373 47.7749 53.2178 47.8879 53.444 47.9463L57.1683 48.9059C57.3945 48.964 57.6479 48.9628 57.8727 48.9025C58.0976 48.8422 58.2755 48.7277 58.3674 48.5842C58.4592 48.4407 58.4576 48.2799 58.3627 48.1372C58.2679 47.9944 58.0876 47.8814 57.8616 47.823V47.823Z" fill="#C6C6C6"/>
<path d="M18.9323 59.7214C18.6585 59.6081 18.322 59.5656 17.9966 59.6031C17.6713 59.6407 17.3838 59.7552 17.1973 59.9216L14.1293 62.6598C14.0126 62.7637 13.9404 62.8837 13.9194 63.0089C13.8984 63.134 13.9292 63.2604 14.0089 63.3765C14.3609 63.5367 14.7197 63.6927 15.0808 63.8446C15.2975 63.8532 15.5141 63.8273 15.7092 63.7694C15.9044 63.7115 16.0713 63.6237 16.1936 63.5146L19.2616 60.7764C19.3539 60.694 19.4186 60.6013 19.452 60.5037C19.4854 60.406 19.4869 60.3054 19.4563 60.2074C19.4257 60.1095 19.3637 60.0161 19.2738 59.9327C19.1839 59.8493 19.0678 59.7775 18.9323 59.7214Z" fill="#C6C6C6"/>
<path d="M11.0629 47.1844C11.0174 47.1134 10.9503 47.0487 10.8654 46.9941C10.7805 46.9396 10.6795 46.8961 10.5681 46.8663C10.4567 46.8365 10.3372 46.8209 10.2163 46.8204C10.0955 46.82 9.97565 46.8346 9.8637 46.8635L6.13879 47.8231C5.91269 47.8815 5.7324 47.9945 5.63755 48.1372C5.54269 48.2799 5.54103 48.4407 5.63293 48.5842C5.72482 48.7277 5.90275 48.8422 6.12763 48.9025C6.3525 48.9628 6.60592 48.964 6.83219 48.9059L10.5571 47.9463C10.7831 47.8876 10.9632 47.7744 11.058 47.6316C11.1528 47.4889 11.1546 47.328 11.0629 47.1844Z" fill="#C6C6C6"/>
<path d="M33.3652 40.9502C33.4473 41.1117 33.3333 41.2775 33.0484 41.4112C32.7635 41.5448 32.331 41.6354 31.8456 41.6631L16.0819 42.5553C15.8414 42.5689 15.5952 42.5666 15.3574 42.5486C15.1196 42.5305 14.8948 42.4971 14.6958 42.4501C14.4969 42.4032 14.3277 42.3436 14.1978 42.2749C14.068 42.2062 13.9802 42.1297 13.9393 42.0496C13.8984 41.9696 13.9052 41.8877 13.9595 41.8086C14.0137 41.7295 14.1142 41.6547 14.2553 41.5885C14.3965 41.5223 14.5754 41.4659 14.7819 41.4228C14.9884 41.3796 15.2185 41.3503 15.4589 41.3367L31.2226 40.4445C31.7082 40.4172 32.2065 40.4551 32.6082 40.5499C33.0098 40.6447 33.2821 40.7886 33.3652 40.9502Z" fill="#0C0C0C"/>
<path d="M49.7345 57.1453C49.5071 57.3467 49.1981 57.4604 48.8755 57.4615C48.5529 57.4626 48.243 57.3511 48.0137 57.1513L30.9678 42.2664C30.739 42.0663 30.6099 41.7944 30.6088 41.5105C30.6077 41.2267 30.7346 40.954 30.9618 40.7525C31.189 40.551 31.4977 40.4371 31.8203 40.4359C32.1428 40.4346 32.4527 40.5461 32.6818 40.7459L49.7278 55.6308C49.9565 55.831 50.0857 56.1029 50.087 56.3868C50.0883 56.6707 49.9615 56.9435 49.7345 57.1453Z" fill="#0C0C0C"/>
<path d="M32.0001 42.5641C32.7685 42.5641 33.3914 42.0876 33.3914 41.5C33.3914 40.9123 32.7685 40.4359 32.0001 40.4359C31.2317 40.4359 30.6088 40.9123 30.6088 41.5C30.6088 42.0876 31.2317 42.5641 32.0001 42.5641Z" fill="#C6C6C6"/>
<path d="M19.0619 5.13987C16.1221 9.68985 11.6366 12.7094 6.10483 14.6931C5.99552 14.7737 5.87116 14.8323 5.73884 14.8656C5.60653 14.8989 5.46885 14.9062 5.33366 14.8871C5.19848 14.868 5.06844 14.8228 4.95098 14.7543C4.83351 14.6857 4.73092 14.595 4.64905 14.4874C1.64426 10.5378 2.32274 4.89316 6.28843 1.87525C7.2472 1.14689 8.34338 0.613277 9.51335 0.30538C10.6833 -0.00251686 11.9038 -0.0785603 13.1038 0.0816663C14.3039 0.241893 15.4597 0.635197 16.5041 1.23874C17.5485 1.84229 18.4607 2.64406 19.1877 3.59751L19.2709 3.70675C19.3527 3.81435 19.4123 3.93678 19.4461 4.06704C19.4799 4.1973 19.4873 4.33284 19.4679 4.46591C19.4485 4.59899 19.4026 4.727 19.333 4.84264C19.2633 4.95828 19.1712 5.05928 19.0619 5.13987Z" fill="#C6C6C6"/>
<path d="M44.8126 3.59751C45.5397 2.64406 46.4519 1.84229 47.4963 1.23874C48.5407 0.635195 49.6964 0.241894 50.8965 0.0816669C52.0966 -0.0785598 53.317 -0.00251845 54.487 0.305378C55.6569 0.613275 56.7531 1.14689 57.7119 1.87525C61.6776 4.89316 62.3561 10.5378 59.3513 14.4874C59.2694 14.595 59.1668 14.6857 59.0494 14.7543C58.9319 14.8228 58.8019 14.868 58.6667 14.8871C58.5315 14.9062 58.3938 14.8989 58.2615 14.8656C58.1292 14.8323 58.0048 14.7737 57.8955 14.6931C52.7602 12.7576 48.549 9.40826 44.9384 5.13987C44.7177 4.9771 44.5717 4.73467 44.5325 4.46591C44.4933 4.19714 44.5641 3.92407 44.7295 3.70674L44.8126 3.59751Z" fill="#C6C6C6"/>
<path d="M42.2879 70.3403C42.0397 70.4525 41.8568 70.6393 41.7795 70.8598C41.7021 71.0803 41.7365 71.3164 41.8751 71.5165L48.0751 80.4298C48.2143 80.6297 48.4465 80.7771 48.7207 80.8393C48.9948 80.9016 49.2885 80.8737 49.5371 80.7617C49.7857 80.6498 49.9689 80.463 50.0463 80.2425C50.1238 80.022 50.0892 79.7857 49.9501 79.5857L43.7501 70.6724C43.6106 70.4727 43.3784 70.3256 43.1043 70.2634C42.8302 70.2011 42.5367 70.2288 42.2879 70.3403Z" fill="#C6C6C6"/>
<path d="M20.2491 70.6731L14.0496 79.5858C13.9106 79.7858 13.876 80.022 13.9534 80.2426C14.0309 80.4631 14.214 80.6498 14.4626 80.7618C14.7112 80.8737 15.0048 80.9016 15.279 80.8393C15.5531 80.7771 15.7853 80.6298 15.9244 80.4298L22.1239 71.5172C22.1928 71.4181 22.2368 71.3091 22.2534 71.1964C22.2699 71.0837 22.2587 70.9695 22.2204 70.8602C22.1821 70.751 22.1174 70.6489 22.03 70.5598C21.9426 70.4707 21.8343 70.3963 21.7112 70.3408C21.588 70.2854 21.4526 70.25 21.3124 70.2367C21.1723 70.2234 21.0303 70.2325 20.8946 70.2633C20.7588 70.2942 20.6319 70.3463 20.5212 70.4166C20.4104 70.4869 20.3179 70.5741 20.2491 70.6731Z" fill="#C6C6C6"/>
<path d="M50.0871 83C51.6239 83 52.8697 81.5707 52.8697 79.8077C52.8697 78.0446 51.6239 76.6154 50.0871 76.6154C48.5503 76.6154 47.3045 78.0446 47.3045 79.8077C47.3045 81.5707 48.5503 83 50.0871 83Z" fill="#C6C6C6"/>
<path d="M52.8696 14.8974C54.4064 14.8974 55.6523 13.4682 55.6523 11.7051C55.6523 9.94206 54.4064 8.51282 52.8696 8.51282C51.3329 8.51282 50.087 9.94206 50.087 11.7051C50.087 13.4682 51.3329 14.8974 52.8696 14.8974Z" fill="#C6C6C6"/>
<path d="M32.0001 8.51273C32.7685 8.51273 33.3914 7.08349 33.3914 5.32042C33.3914 3.55736 32.7685 2.12811 32.0001 2.12811C31.2317 2.12811 30.6088 3.55736 30.6088 5.32042C30.6088 7.08349 31.2317 8.51273 32.0001 8.51273Z" fill="#C6C6C6"/>
<path d="M13.9133 14.8974C15.4501 14.8974 16.696 13.4682 16.696 11.7051C16.696 9.94206 15.4501 8.51282 13.9133 8.51282C12.3766 8.51282 11.1307 9.94206 11.1307 11.7051C11.1307 13.4682 12.3766 14.8974 13.9133 14.8974Z" fill="#C6C6C6"/>
<path d="M13.9133 83C15.4501 83 16.696 81.5707 16.696 79.8077C16.696 78.0446 15.4501 76.6154 13.9133 76.6154C12.3766 76.6154 11.1307 78.0446 11.1307 79.8077C11.1307 81.5707 12.3766 83 13.9133 83Z" fill="#C6C6C6"/>
<path d="M61.3692 28.1699C61.5489 28.4216 61.7883 28.6349 62.0703 28.7949C62.3523 28.9549 62.6701 29.0577 63.0013 29.0961C63.3326 29.1344 63.6692 29.1074 63.9875 29.0168C64.3057 28.9263 64.598 28.7745 64.8435 28.5721L72 32L71.6162 28.244L64.8791 25.5646C64.4714 25.2184 63.9358 25.0179 63.3737 25.0011C62.8117 24.9844 62.2623 25.1525 61.8297 25.4736C61.397 25.7948 61.1112 26.2466 61.0263 26.7436C60.9414 27.2405 61.0634 27.748 61.3692 28.1699H61.3692Z" fill="#FFD5AE"/>
<path d="M68 29.953L70.6676 26L83.5188 32.5218L99.5105 29.3006C100.301 29.1414 101.114 29.171 101.893 29.3872C102.672 29.6035 103.396 30.0011 104.016 30.5518C104.635 31.1025 105.134 31.7929 105.477 32.5739C105.82 33.3549 105.998 34.2073 106 35.0707C106.001 36.6302 105.426 38.1264 104.401 39.2312C103.375 40.3359 101.984 40.9589 100.531 40.9635L82.2045 41L68 29.953Z" fill="#B3003F"/>
<path d="M63.1586 103L60 101.46L64.3387 88L69 90.2732L63.1586 103Z" fill="#FFD5AE"/>
<path d="M81 101.134C80.8012 101.286 80.6024 101.435 80.4016 101.584C80.002 101.882 79.5984 102.176 79.1948 102.464C78.992 102.609 78.7871 102.753 78.5843 102.895V102.902L78.5723 102.905L78.5683 102.907L78.259 103L77.8153 101.572L77.6104 100.914L77.3213 99.9824L76.7912 98.278L74 89.3034L78.3394 88L78.502 88.8094H78.504L78.5843 89.2105L80.1004 96.6983L80.4096 98.2291L80.4197 98.2755L80.6064 99.1901L80.7671 99.9824L80.9458 100.868L81 101.134Z" fill="#FFD5AE"/>
<path d="M106.571 71.0781C106.3 71.5835 106.023 72.0865 105.744 72.585C105.226 73.513 104.694 74.4272 104.148 75.3277C104.148 75.33 104.146 75.33 104.144 75.3323C103.826 75.6749 103.474 75.9733 103.096 76.2213C103.08 76.2351 103.062 76.2443 103.047 76.2557C102.768 76.4344 102.472 76.5725 102.165 76.6669C102.054 76.6991 101.941 76.7312 101.83 76.7634C101.431 76.8737 101.035 76.9678 100.642 77.0505C99.9414 77.1952 99.2492 77.2986 98.5609 77.3629C98.5056 77.3698 98.4502 77.3744 98.3948 77.379C95.5645 77.6202 92.8094 77.232 89.9337 76.5957C88.5136 76.2833 87.0639 75.9089 85.5627 75.5207C85.0722 75.392 84.5797 75.2657 84.0813 75.1393C84.0437 75.1302 84.0042 75.1187 83.9646 75.1095C83.2526 74.928 82.5287 74.7488 81.787 74.572C80.8535 74.3491 79.8903 74.1332 78.8895 73.9288L78.9607 75.5666C79.02 76.8265 79.2455 78.0684 79.6292 79.2489C80.0565 80.7006 80.3946 81.8492 79.6807 84.2404L79.3365 85.3982C79.5149 85.9731 79.5761 86.5882 79.5154 87.1952C79.4547 87.8022 79.2736 88.3846 78.9864 88.8966L78.9172 89.0184L81.787 97.451L81.973 97.9977H80.5034L78.6957 98H75.6321L71.2116 87.6999L71 87.2083V87.183L71.4569 67.389C71.4628 67.2144 71.4747 67.0375 71.4945 66.8629C71.575 66.0693 71.7909 65.3022 72.1295 64.6065C72.468 63.9108 72.9225 63.3004 73.4663 62.8109C73.9875 62.3378 74.5844 61.9898 75.2224 61.7871C75.8604 61.5844 76.5268 61.5311 77.1827 61.6302L78.6957 61.8576L81.787 62.3216L83.9646 62.6501L84.0081 62.657L90.4301 63.6217L90.8909 61.4395L90.976 61.4028L93.6797 60.2519L103.031 56.271L103.055 56.2619L103.67 56L103.743 56.1378C103.765 56.1792 103.786 56.2205 103.806 56.2619C104.414 57.5277 104.909 58.8624 105.284 60.245C105.913 62.5037 106.432 64.8022 106.836 67.1294C106.854 67.2305 106.87 67.3224 106.884 67.4051L106.89 67.4303C106.895 67.4694 106.899 67.4946 106.901 67.5015C107.117 68.5444 106.967 69.817 106.571 71.0781Z" fill="#0C0C0C"/>
<path d="M106.853 63.7945C106.823 63.6487 106.785 63.5006 106.745 63.3571C106.428 62.27 106.059 61.2036 105.64 60.1629C105.169 58.9782 104.605 57.7092 103.932 56.3354C103.607 55.6701 103.258 54.9783 102.883 54.2599C102.696 53.8999 102.501 53.5331 102.299 53.1595C102.291 53.1423 102.282 53.1255 102.273 53.1093L102.215 53L92.8833 54.4262L89.4084 54.9571L89.201 56.9346L89.1511 57.4245C89.1491 57.4245 89.1491 57.4244 89.1511 57.4267L89.0114 58.7618V58.7641L88.8259 60.5275L88.81 60.5252L83.6535 59.762L78.3393 58.976L75.4848 58.5545C74.8232 58.456 74.1512 58.5089 73.5077 58.7099C72.8642 58.9109 72.2621 59.2562 71.7366 59.7255C71.1882 60.2112 70.7299 60.8166 70.3884 61.5066C70.047 62.1966 69.8292 62.9573 69.7478 63.7444C69.7298 63.9039 69.7179 64.0679 69.7119 64.2297L67.0189 71.518C65.4074 75.8767 64.3812 80.4883 63.9748 85.1968L62 92.4076L62.2813 92.4373L66.4663 92.8815L67.5714 93L70.0051 88.9424C70.2824 88.4799 70.5457 88.0037 70.791 87.5161C71.195 86.7198 71.5541 85.895 71.8662 85.0465L77.1305 70.7388C77.5374 70.8186 77.9404 70.8945 78.3393 70.9666C80.1845 71.3084 81.9559 71.5871 83.6534 71.8028C89.173 72.5068 93.9525 72.5614 98.2074 71.9645C99.4023 71.7982 100.557 71.5795 101.672 71.3084C102.081 71.2104 102.485 71.1048 102.883 70.9917C102.977 70.9666 103.069 70.9416 103.16 70.9142C103.985 70.6714 104.743 70.1963 105.365 69.5324C105.987 68.8685 106.453 68.037 106.721 67.114C107.041 66.0444 107.087 64.8928 106.853 63.7945Z" fill="#0C0C0C"/>
<path d="M64.2824 101.712L61.3296 100.233L60.8665 100L60.1268 101.898L54.9629 103.086C54.7076 103.144 54.4769 103.287 54.3044 103.492C54.132 103.697 54.0269 103.955 54.0045 104.227C53.9821 104.499 54.0436 104.772 54.18 105.005C54.3163 105.238 54.5204 105.419 54.7625 105.522L59.8081 107.674L61.4098 106.168L61.0168 108.189L62.9172 109L65 102.072L64.2824 101.712Z" fill="#0C0C0C"/>
<path d="M80.5946 98.2965L77.1326 99.5194L76.5893 99.7107L77.431 101.777L74.2201 106.843C74.0612 107.093 73.9849 107.389 74.0025 107.686C74.02 107.984 74.1305 108.268 74.3177 108.497C74.505 108.726 74.7592 108.888 75.0432 108.959C75.3272 109.031 75.6261 109.008 75.8963 108.893L81.5289 106.512L81.6676 104.058L82.8782 105.942L85 105.045L81.4367 98L80.5946 98.2965Z" fill="#0C0C0C"/>
<path d="M107.053 67C106.863 66.9996 106.675 66.9494 106.506 66.8536L89.5647 57.3011L89.3689 56.4363L89 53.6997L89.0051 53.6741L90.6163 45.6585C90.5868 45.5896 90.525 45.4768 90.4554 45.3492C89.736 44.0341 87.547 40.0315 91.7248 34.5203L99.06 25.2923L105.356 25L105.427 25.0976C107.111 27.3775 108.246 30.0709 108.732 32.9384C109.218 35.8059 109.041 38.7585 108.215 41.534L107.559 54.3092L108.262 56.8891C108.673 58.4053 108.605 60.0259 108.069 61.4958L108.23 65.6733C108.236 65.8446 108.211 66.0154 108.154 66.1757C108.098 66.3359 108.013 66.4823 107.903 66.6062C107.793 66.73 107.661 66.8286 107.515 66.8963C107.369 66.964 107.212 66.9992 107.053 67L107.053 67Z" fill="#B3003F"/>
<path d="M91.9948 78.6066C92.2424 78.4021 92.455 78.1243 92.6174 77.7926C92.7799 77.4609 92.8884 77.0835 92.9352 76.6869C92.982 76.2903 92.9661 75.8842 92.8885 75.4972C92.8108 75.1101 92.6735 74.7516 92.486 74.4468L96 66L92.373 66.2857L89.5921 74.2631C89.2466 74.7373 89.0376 75.3721 89.0046 76.0473C88.9716 76.7224 89.117 77.3911 89.4131 77.9265C89.7093 78.4619 90.1357 78.8268 90.6115 78.9522C91.0873 79.0775 91.5795 78.9546 91.9948 78.6066L91.9948 78.6066Z" fill="#FFD5AE"/>
<path d="M93.8336 73L90 69.8228L96.9661 55.4583L94.3559 37.1657C94.2269 36.2615 94.2865 35.3382 94.5306 34.4613C94.7747 33.5844 95.1972 32.7754 95.7681 32.0918C96.3391 31.4082 97.0445 30.8666 97.8342 30.5057C98.6239 30.1448 99.4786 29.9733 100.338 30.0034C101.889 30.0596 103.356 30.7684 104.417 31.9743C105.478 33.1802 106.046 34.7846 105.997 36.4357L105.352 57.2643L93.8336 73Z" fill="#B3003F"/>
<path d="M95 20.7866V14.0426C94.9986 11.6459 95.8522 9.34676 97.3728 7.65094C98.8935 5.95511 100.957 5.00154 103.109 5C105.261 4.99846 107.325 5.94908 108.848 7.64273C110.37 9.33637 111.227 11.6343 111.228 14.031V14.0426C112.658 17.3616 111.763 18.9396 111.228 20.7866C111.228 21.1083 111.113 21.4166 110.908 21.644C110.704 21.8715 110.427 21.9995 110.139 22H96.09C95.8011 21.9996 95.5241 21.8717 95.3198 21.6442C95.1155 21.4168 95.0005 21.1084 95 20.7866Z" fill="#0C0C0C"/>
<path d="M100.5 22C103.538 22 106 19.0899 106 15.5C106 11.9102 103.538 9 100.5 9C97.4624 9 95 11.9102 95 15.5C95 19.0899 97.4624 22 100.5 22Z" fill="#FFD5AE"/>
<path d="M105.84 17C105.793 16.9905 105.746 16.9779 105.698 16.9684C104.885 16.785 104.071 16.6049 103.26 16.4183L103.186 14.0823L102.203 16.1749C99.9612 17.1201 97.8638 16.5859 95.8909 15.4068C95.2401 15.0142 94.6086 14.5719 94 14.0823C94.1657 12.7903 94.5567 11.5617 95.1443 10.4864C95.7319 9.41108 96.5012 8.51629 97.3961 7.86745C97.4707 7.8137 97.5429 7.76631 97.6175 7.71885C97.6178 7.71886 97.6182 7.71878 97.6185 7.71863C97.6188 7.71847 97.619 7.71824 97.6193 7.71794C97.6195 7.71765 97.6197 7.7173 97.6198 7.71691C97.6199 7.71652 97.62 7.71611 97.62 7.71569C97.7469 7.63983 97.8763 7.56713 98.0056 7.50076C99.0185 6.99783 100.123 6.87046 101.19 7.13346C102.258 7.39647 103.245 8.03903 104.036 8.98648C105.629 10.918 106.345 14.1075 105.84 17Z" fill="#0C0C0C"/>
</svg>
