<svg width="74" height="135" viewBox="0 0 74 135" fill="none" xmlns="http://www.w3.org/2000/svg">
<path d="M48.7328 13.0484C46.4687 16.7902 50.7319 23.0949 46.4353 24.4041L46.7892 24.0646C49.3828 21.004 43.9619 14.5263 46.5555 11.4658C46.9584 11.0168 47.3044 10.5235 47.586 9.99628" fill="#0C0C0C"/>
<path d="M69.9362 67.9438C70.0105 67.5693 69.9982 67.1838 69.9004 66.8144C69.8025 66.445 69.6214 66.1006 69.3699 65.8056C69.1183 65.5106 68.8023 65.2721 68.4443 65.1069C68.0862 64.9418 67.6948 64.8539 67.2975 64.8495L61.701 49.251L58.6033 53.039L64.5204 67.6141C64.557 68.2548 64.8374 68.8604 65.3083 69.3161C65.7793 69.7719 66.4081 70.046 67.0757 70.0867C67.7433 70.1273 68.4032 69.9316 68.9304 69.5366C69.4576 69.1417 69.8155 68.5749 69.9362 67.9437L69.9362 67.9438Z" fill="#FFD5AE"/>
<path d="M45.3356 30.2825C45.3356 30.2825 45.1615 24.636 50.4247 27.8706C55.688 31.1053 67.1475 61.406 67.1475 61.406L61.4448 64.3659L48.4988 36.6373L45.3356 30.2825Z" fill="#B3003F"/>
<path d="M60.8636 127.059L58.2354 128.137L52.6527 118.924L56.5318 117.334L60.8636 127.059Z" fill="#FFD5AE"/>
<path d="M64.1965 130.859L62.3118 131.632L61.215 130.063L61.1137 132.123L56.1149 134.172C55.8753 134.271 55.6092 134.293 55.3555 134.236C55.1019 134.179 54.8738 134.045 54.7048 133.855C54.5357 133.665 54.4345 133.428 54.4158 133.178C54.3971 132.929 54.4621 132.68 54.6011 132.469L57.4149 128.188L56.6462 126.462L60.9521 124.981L64.1965 130.859Z" fill="#0C0C0C"/>
<path d="M19.664 130.184L16.8095 130.05L15.9889 119.424L20.2024 119.621L19.664 130.184Z" fill="#FFD5AE"/>
<path d="M20.929 135L18.8818 134.904L18.6109 133.033L17.5805 134.843L12.1509 134.588C11.8906 134.576 11.6412 134.485 11.4391 134.327C11.237 134.169 11.0928 133.953 11.0275 133.711C10.9622 133.469 10.9792 133.214 11.0761 132.982C11.173 132.75 11.3447 132.553 11.5661 132.421L16.0484 129.752L16.1439 127.877L20.6912 128.352L20.929 135Z" fill="#0C0C0C"/>
<path d="M26.8754 61.1056C26.8754 61.1056 21.0703 76.2829 20.9765 77.9813C20.8827 79.6797 19.2271 101.157 17.8387 102.405C16.4502 103.653 12.2052 123.001 15.5082 124.514C18.8112 126.027 29.2319 123.52 29.2319 123.52L32.857 100.666L34.0885 83.1575C34.0885 83.1575 37.8376 124.388 44.6375 124.267C51.4373 124.145 59.7233 121.661 59.7233 121.661L50.2059 96.6919C50.2059 96.6919 50.3404 67.1312 48.1344 61.169C45.9283 55.2068 26.8754 61.1056 26.8754 61.1056Z" fill="#0C0C0C"/>
<path d="M44.1011 22.0029L36.3267 22.6861L35.0743 26.3744C35.0743 26.3744 28.5681 29.8023 30.0088 31.3596C31.4495 32.9169 29.6867 43.4116 29.6867 43.4116L30.0848 51.9303C30.0848 51.9303 29.6571 57.8323 28.3772 59.1922C27.0973 60.552 23.7487 63.8865 26.1147 62.2912C34.4107 56.6976 48.9112 61.4174 48.9112 61.4174L46.8397 49.2452C46.8397 49.2452 51.5449 29.3165 49.6881 27.6334C47.8312 25.9503 46.0792 25.7376 46.0792 25.7376L44.1011 22.0029Z" fill="#B3003F"/>
<path d="M3.24996 60.6129C3.64055 60.5431 4.01045 60.3921 4.33359 60.1703C4.65673 59.9485 4.92526 59.6615 5.12026 59.3294C5.31527 58.9973 5.432 58.6283 5.46224 58.2482C5.49249 57.8682 5.4355 57.4864 5.2953 57.1298L18.4078 46.4574L13.6033 45.066L1.60122 55.6529C0.992323 55.9186 0.506157 56.3893 0.234846 56.9758C-0.0364642 57.5624 -0.0740645 58.2241 0.129163 58.8354C0.33239 59.4468 0.76233 59.9655 1.33751 60.2931C1.91269 60.6207 2.59316 60.7345 3.24996 60.6129Z" fill="#FFD5AE"/>
<path d="M36.5507 32.6972C36.5507 32.6972 39.1343 27.621 32.9493 28.4882C26.7644 29.3553 3.31012 52.4357 3.31012 52.4357L7.23523 57.3867L30.9394 37.2375L36.5507 32.6972Z" fill="#B3003F"/>
<path d="M26.4788 24.0867L1.95679 54.2255C1.53257 54.7486 1.34182 55.4117 1.42632 56.0695C1.51082 56.7272 1.86368 57.3261 2.40758 57.7347C8.10223 70.9996 25.1391 80.8361 45.1805 89.7644C45.7256 90.1718 46.4169 90.355 47.1027 90.274C47.7884 90.1929 48.4127 89.8541 48.8384 89.3319L73.3604 59.1931C73.785 58.6702 73.976 58.007 73.8915 57.3491C73.807 56.6912 73.4538 56.0923 72.9095 55.6839C56.091 46.5732 41.6355 36.0176 30.1367 23.6542C29.5914 23.2473 28.9002 23.0643 28.2146 23.1453C27.5289 23.2264 26.9047 23.5649 26.4788 24.0867Z" fill="#C6C6C6"/>
<path d="M71.6394 58.5075L64.1751 67.6814C59.6156 73.2517 52.9435 76.8645 45.6164 77.7308C38.2892 78.5971 30.9025 76.6464 25.0697 72.3048L4.15145 56.6406C3.84157 56.4085 3.64032 56.0679 3.59186 55.6936C3.5434 55.3193 3.65168 54.9418 3.89295 54.644L27.5886 25.5209C27.8312 25.224 28.1866 25.0316 28.5768 24.9858C28.9671 24.94 29.3603 25.0446 29.6703 25.2767C40.2519 38.3851 54.4161 48.5861 71.3831 56.5125C71.6925 56.7447 71.8932 57.0852 71.9412 57.4592C71.9893 57.8332 71.8807 58.2102 71.6394 58.5075Z" fill="white"/>
<path d="M25.9895 40.5399L21.1284 46.5145C20.9994 46.6728 20.8102 46.7754 20.6023 46.7999C20.3945 46.8244 20.185 46.7687 20.0199 46.6451C19.8549 46.5215 19.7477 46.34 19.722 46.1407C19.6963 45.9413 19.7541 45.7403 19.8828 45.5818L24.744 39.6072C24.8078 39.5287 24.8871 39.4629 24.9774 39.4138C25.0677 39.3647 25.1672 39.3331 25.2702 39.3209C25.3732 39.3086 25.4777 39.316 25.5778 39.3426C25.6778 39.3691 25.7715 39.4143 25.8533 39.4756C25.9351 39.5369 26.0036 39.613 26.0547 39.6997C26.1058 39.7863 26.1387 39.8818 26.1513 39.9807C26.164 40.0795 26.1562 40.1798 26.1284 40.2757C26.1007 40.3717 26.0535 40.4615 25.9895 40.5399H25.9895Z" fill="#C6C6C6"/>
<path d="M35.1077 36.108L24.4322 49.2286C24.3684 49.3071 24.2891 49.3727 24.1988 49.4218C24.1085 49.4708 24.009 49.5023 23.9061 49.5145C23.8031 49.5267 23.6986 49.5193 23.5987 49.4927C23.4987 49.4662 23.4051 49.421 23.3233 49.3597C23.2415 49.2985 23.1731 49.2224 23.122 49.1358C23.0709 49.0492 23.038 48.9537 23.0253 48.855C23.0127 48.7562 23.0204 48.656 23.0481 48.56C23.0757 48.4641 23.1228 48.3744 23.1867 48.2959L33.8621 35.1753C33.9259 35.0966 34.0052 35.0308 34.0955 34.9816C34.1858 34.9324 34.2853 34.9007 34.3884 34.8885C34.4915 34.8762 34.5961 34.8835 34.6962 34.9101C34.7963 34.9366 34.8899 34.9818 34.9718 35.0432C35.0537 35.1045 35.1222 35.1807 35.1733 35.2674C35.2244 35.3541 35.2573 35.4496 35.2699 35.5485C35.2825 35.6474 35.2747 35.7478 35.2468 35.8437C35.219 35.9397 35.1717 36.0295 35.1077 36.108H35.1077Z" fill="#C6C6C6"/>
<path d="M16.9004 57.9929C19.7743 57.9929 22.104 55.7579 22.104 53.0008C22.104 50.2438 19.7743 48.0088 16.9004 48.0088C14.0266 48.0088 11.6968 50.2438 11.6968 53.0008C11.6968 55.7579 14.0266 57.9929 16.9004 57.9929Z" fill="#B3003F"/>
<path d="M35.6744 46.4777L22.5628 62.5925C22.426 62.7262 22.2427 62.8069 22.0478 62.8192C21.8529 62.8315 21.6602 62.7746 21.5062 62.6593C21.3523 62.5441 21.2479 62.3785 21.2131 62.1941C21.1782 62.0098 21.2153 61.8196 21.3173 61.6598L34.4289 45.545C34.5657 45.4113 34.749 45.3306 34.9439 45.3183C35.1387 45.306 35.3315 45.3629 35.4854 45.4781C35.6394 45.5934 35.7437 45.759 35.7786 45.9434C35.8134 46.1277 35.7763 46.3179 35.6744 46.4777Z" fill="#C6C6C6"/>
<path d="M44.1801 42.7984L25.8795 65.2908C25.7427 65.4244 25.5594 65.5051 25.3645 65.5175C25.1696 65.5298 24.9769 65.4729 24.8229 65.3576C24.669 65.2423 24.5646 65.0767 24.5298 64.8924C24.4949 64.708 24.532 64.5179 24.634 64.3581L42.9345 41.8657C43.0714 41.7321 43.2547 41.6514 43.4496 41.639C43.6444 41.6267 43.8372 41.6836 43.9911 41.7989C44.1451 41.9142 44.2494 42.0798 44.2843 42.2641C44.3191 42.4485 44.282 42.6387 44.1801 42.7984Z" fill="#C6C6C6"/>
<path d="M44.1167 52.7995L31.0051 68.9143C30.8682 69.0479 30.6849 69.1286 30.4901 69.141C30.2952 69.1533 30.1024 69.0964 29.9485 68.9811C29.7945 68.8658 29.6902 68.7002 29.6553 68.5159C29.6205 68.3316 29.6576 68.1414 29.7595 67.9816L42.8711 51.8668C43.0079 51.7331 43.1913 51.6524 43.3861 51.6401C43.581 51.6278 43.7738 51.6846 43.9277 51.7999C44.0817 51.9152 44.186 52.0808 44.2208 52.2651C44.2557 52.4495 44.2186 52.6397 44.1167 52.7995Z" fill="#C6C6C6"/>
<path d="M61.4655 54.787L48.3539 70.9018C48.2171 71.0354 48.0338 71.1161 47.8389 71.1285C47.644 71.1408 47.4513 71.0839 47.2973 70.9686C47.1434 70.8533 47.039 70.6877 47.0042 70.5034C46.9693 70.319 47.0064 70.1288 47.1084 69.969L60.2199 53.8543C60.3568 53.7206 60.5401 53.6399 60.735 53.6276C60.9298 53.6152 61.1226 53.6721 61.2766 53.7874C61.4305 53.9027 61.5348 54.0683 61.5697 54.2526C61.6045 54.437 61.5674 54.6272 61.4655 54.787Z" fill="#B3003F"/>
<path d="M52.6224 49.1202L34.3218 71.6125C34.185 71.7461 34.0017 71.8268 33.8068 71.8392C33.612 71.8515 33.4192 71.7946 33.2652 71.6793C33.1113 71.564 33.007 71.3984 32.9721 71.2141C32.9373 71.0298 32.9744 70.8396 33.0763 70.6798L51.3769 48.1875C51.5137 48.0538 51.697 47.9731 51.8919 47.9608C52.0867 47.9484 52.2795 48.0053 52.4335 48.1206C52.5874 48.2359 52.6917 48.4015 52.7266 48.5858C52.7614 48.7702 52.7244 48.9604 52.6224 49.1202Z" fill="#C6C6C6"/>
<path d="M31.067 12.4811C31.0666 13.6938 31.3764 14.888 31.9693 15.959C32.5623 17.0299 33.4202 17.9449 34.4678 18.6235C35.5153 19.3021 36.7205 19.7237 37.9776 19.8512C39.2346 19.9786 40.5051 19.8081 41.6774 19.3546C42.8497 18.9011 43.888 18.1784 44.7013 17.25C45.5145 16.3216 46.0777 15.2159 46.3415 14.03C46.6053 12.844 46.5616 11.6141 46.2143 10.4481C45.8669 9.28212 45.2265 8.21577 44.3493 7.34265L44.3123 7.30713C44.2505 7.24488 44.1887 7.18266 44.1238 7.12337C44.1234 7.12338 44.123 7.12331 44.1226 7.12316C44.1223 7.12301 44.1219 7.1228 44.1216 7.12252C44.1213 7.12224 44.1211 7.12191 44.121 7.12155C44.1208 7.12119 44.1207 7.1208 44.1208 7.12041C44.0404 7.04929 43.9601 6.97817 43.8767 6.91002C42.7609 5.97149 41.3867 5.36138 39.9187 5.15273C38.4508 4.94408 36.9512 5.14574 35.5996 5.73356C34.248 6.32138 33.1017 7.27046 32.2978 8.46715C31.494 9.66385 31.0667 11.0575 31.067 12.4811V12.4811Z" fill="#0C0C0C"/>
<path d="M40.6916 20.4075C44.2679 20.4075 47.1671 17.6262 47.1671 14.1952C47.1671 10.7643 44.2679 7.98303 40.6916 7.98303C37.1153 7.98303 34.2162 10.7643 34.2162 14.1952C34.2162 17.6262 37.1153 20.4075 40.6916 20.4075Z" fill="#FFD5AE"/>
<path d="M33.7886 15.8507C33.1557 13.1143 34.0705 10.0486 36.0652 8.22175C37.0684 7.32109 38.3161 6.71024 39.665 6.45942C41.0138 6.20859 42.4091 6.32797 43.6904 6.80382C43.8533 6.86689 44.0161 6.9359 44.1759 7.00795L44.2503 7.04155V7.05198C44.2647 7.06157 44.2791 7.07163 44.2935 7.08182C44.3237 7.10897 44.3605 7.12844 44.4005 7.13846C44.9627 7.12435 45.5217 7.22438 46.0409 7.43199C46.56 7.6396 47.0276 7.9501 47.4129 8.34316C48.4165 9.38787 48.8891 11.0762 48.7443 13.0971L48.7397 13.1603L48.6836 13.1939C47.9237 13.6558 47.1353 14.0728 46.3225 14.4427C43.4798 15.725 40.8846 15.9627 38.3903 15.1682L38.3445 15.1536L37.2976 13.4704C37.0827 14.6313 37.1975 18.482 35.9643 18.6907L33.8154 15.9668L33.7886 15.8507Z" fill="#0C0C0C"/>
<path d="M20.1573 21.2596C22.3609 20.1685 19.5269 16.2083 20.0964 13.8929C20.6659 11.5775 24.7668 10.8328 25.0281 8.46707C25.2893 6.10132 25.9039 3.6613 27.5312 1.86615C28.571 0.719053 30.1031 -0.127776 31.6806 0.0159054C32.2144 0.064518 32.7309 0.222917 33.1951 0.480313C33.6593 0.737709 34.0602 1.08806 34.3705 1.50749C34.6808 1.92693 34.8932 2.40559 34.9933 2.9109C35.0934 3.4162 35.0788 3.93626 34.9505 4.43567C35.3997 3.82513 36.562 3.95745 36.8497 4.65191C37.1055 5.26929 36.5404 6.0171 35.8755 6.07173C35.0053 7.10263 34.0089 8.1967 32.6457 8.40466C32.4285 8.45251 32.2028 8.45239 31.9856 8.40431C31.7685 8.35623 31.5656 8.26144 31.3922 8.12711C31.0715 7.83164 31.0466 7.24093 31.427 7.02012C29.7138 7.67298 28.7094 9.44997 28.4552 11.2015C28.201 12.9531 28.5527 14.7253 28.7845 16.4797C29.0162 18.2341 29.1161 20.0797 28.399 21.7089C27.5518 23.6338 25.6013 25.0134 23.4727 25.4559C21.344 25.8983 19.0771 25.4659 17.1503 24.4917C15.2235 23.5174 13.6168 22.0301 12.3042 20.3626C14.5652 21.9028 17.6933 22.4798 20.1573 21.2596Z" fill="#0C0C0C"/>
<path d="M37.5985 13.7937C35.3344 17.5355 39.5977 23.8402 35.301 25.1494L35.655 24.8099C38.2486 21.7493 32.8277 15.2716 35.4213 12.2111C35.8242 11.7621 36.1701 11.2688 36.4517 10.7416" fill="#0C0C0C"/>
<path d="M34.0909 15.7941C34.0909 15.7941 36.0091 8.9251 44.2318 7.33969C44.241 7.33676 44.272 7.32489 44.3121 7.30713C44.3368 7.2923 44.3677 7.27747 44.3986 7.26267C44.3059 7.21228 44.2164 7.16785 44.1237 7.12336C44.1233 7.12337 44.1229 7.12329 44.1225 7.12315C44.1221 7.123 44.1218 7.12278 44.1215 7.12251C44.1212 7.12223 44.121 7.1219 44.1208 7.12154C44.1207 7.12117 44.1206 7.12079 44.1206 7.1204C44.0403 7.04928 43.96 6.97816 43.8766 6.91001L43.6418 6.91891C43.6418 6.91891 35.3913 5.66543 34.0909 15.7941Z" fill="#B3003F"/>
</svg>
