<svg width="78" height="120" viewBox="0 0 78 120" fill="none" xmlns="http://www.w3.org/2000/svg">
<path d="M65.9625 120H11.4069C5.49238 120 0.680481 115.406 0.680481 109.76V10.2403C0.680481 4.59379 5.49238 0 11.4069 0H65.9625C71.877 0 76.6889 4.59379 76.6889 10.2403V109.76C76.6889 115.406 71.877 120 65.9625 120Z" fill="#0C0C0C"/>
<path d="M76.6893 36.6067C76.4391 36.6067 76.2355 36.801 76.2355 37.0399V50.9027C76.2355 51.1416 76.4391 51.3359 76.6893 51.3359C76.9396 51.3359 77.1431 51.1416 77.1431 50.9027V37.0399C77.1431 36.801 76.9396 36.6067 76.6893 36.6067Z" fill="#0C0C0C"/>
<path d="M75.6684 10.2403V109.758C75.6684 114.673 71.6615 118.693 66.595 119.005H66.5927C66.5178 119.009 66.443 119.014 66.3658 119.016C66.232 119.022 66.0981 119.024 65.962 119.024C65.962 119.024 65.4628 118.99 64.5507 118.925C63.6295 118.86 62.2886 118.762 60.6164 118.634C60.115 118.598 59.5863 118.556 59.0282 118.513C57.9164 118.426 56.6957 118.331 55.3866 118.223C54.8647 118.182 54.3247 118.136 53.7734 118.091C50.9554 117.859 47.7994 117.588 44.4709 117.281C43.9082 117.231 43.341 117.179 42.7692 117.125C42.6195 117.11 42.4674 117.097 42.3154 117.081C39.9421 116.858 37.5031 116.618 35.0549 116.362C34.9029 116.347 34.7509 116.332 34.6011 116.317C30.3832 115.873 26.1494 115.39 22.1879 114.87C19.1408 114.471 16.2547 114.051 13.6637 113.616C12.8196 113.473 12.0073 113.33 11.2314 113.185C11.0794 113.156 10.9273 113.128 10.7776 113.098C5.29365 112.05 1.70197 110.919 1.70197 109.758V10.2403C1.70196 5.12189 6.04692 0.973877 11.4084 0.973877H17.2031C18.1289 0.973877 18.873 1.66268 18.9525 2.54427C18.9593 2.60276 18.9661 2.66124 18.9774 2.71972C19.1453 3.60565 19.9962 4.22297 20.94 4.22297H56.4303C57.3741 4.22297 58.225 3.60565 58.3929 2.71972C58.4042 2.66124 58.411 2.60276 58.4178 2.54427C58.4973 1.66268 59.2414 0.973877 60.1672 0.973877H65.962C71.3234 0.973877 75.6684 5.12189 75.6684 10.2403H75.6684Z" fill="white"/>
<path d="M0.45378 26.2095C0.203515 26.2095 0 26.4038 0 26.6427V30.1084C0 30.3473 0.203515 30.5416 0.45378 30.5416C0.704046 30.5416 0.907561 30.3473 0.907561 30.1084V26.6427C0.907561 26.4038 0.704046 26.2095 0.45378 26.2095Z" fill="#0C0C0C"/>
<path d="M0.45378 36.6067C0.203515 36.6067 0 36.801 0 37.0399V43.7547C0 43.9936 0.203515 44.1879 0.45378 44.1879C0.704046 44.1879 0.907561 43.9936 0.907561 43.7547V37.0399C0.907561 36.801 0.704046 36.6067 0.45378 36.6067Z" fill="#0C0C0C"/>
<path d="M0.45378 46.1372C0.203515 46.1372 0 46.3315 0 46.5704V53.2852C0 53.5241 0.203515 53.7184 0.45378 53.7184C0.704046 53.7184 0.907561 53.5241 0.907561 53.2852V46.5704C0.907561 46.3315 0.704046 46.1372 0.45378 46.1372Z" fill="#0C0C0C"/>
<path d="M17.0607 2.49121H8.3515C8.31297 2.49121 8.28174 2.52103 8.28174 2.55781V3.50765C8.28174 3.54443 8.31297 3.57424 8.3515 3.57424H17.0607C17.0992 3.57424 17.1305 3.54443 17.1305 3.50765V2.55781C17.1305 2.52103 17.0992 2.49121 17.0607 2.49121Z" fill="#0C0C0C"/>
<path d="M61.6004 3.57391C62.1017 3.57391 62.508 3.186 62.508 2.70749C62.508 2.22898 62.1017 1.84106 61.6004 1.84106C61.0992 1.84106 60.6929 2.22898 60.6929 2.70749C60.6929 3.186 61.0992 3.57391 61.6004 3.57391Z" fill="#0C0C0C"/>
<path d="M64.0971 3.57391C64.5984 3.57391 65.0047 3.186 65.0047 2.70749C65.0047 2.22898 64.5984 1.84106 64.0971 1.84106C63.5959 1.84106 63.1896 2.22898 63.1896 2.70749C63.1896 3.186 63.5959 3.57391 64.0971 3.57391Z" fill="#0C0C0C"/>
<path d="M66.5926 3.57391C67.0939 3.57391 67.5002 3.186 67.5002 2.70749C67.5002 2.22898 67.0939 1.84106 66.5926 1.84106C66.0914 1.84106 65.6851 2.22898 65.6851 2.70749C65.6851 3.186 66.0914 3.57391 66.5926 3.57391Z" fill="#0C0C0C"/>
<path d="M44.2332 33.5569L44.2331 33.5569L44.2331 33.5569C40.7935 25.0956 30.8203 20.8983 21.9573 24.182L21.9572 24.182C13.1783 27.4345 8.7863 36.8061 12.0463 45.2064L11.7892 45.3017L24.245 75.9427L53.779 65.0006C54.7555 64.8164 55.7288 64.5537 56.6889 64.198L56.689 64.1979C65.552 60.9143 69.9486 51.3931 66.509 42.9318L66.509 42.9318C63.0694 34.4705 53.0962 30.2732 44.2331 33.5569L44.2332 33.5569H44.2332Z" fill="#4F001B"/>
<path d="M63.7919 19.2334H63.7919C63.3834 18.2284 62.1988 17.7299 61.1461 18.1199H61.1461C60.1034 18.5063 59.5817 19.6194 59.9689 20.6171L59.9384 20.6284L61.4178 24.2678L64.9257 22.9682C65.0417 22.9463 65.1573 22.9151 65.2714 22.8728H65.2714C66.3241 22.4828 66.8463 21.3519 66.4377 20.3469V20.3469C66.0292 19.3419 64.8446 18.8434 63.7919 19.2334L63.7919 19.2334V19.2334Z" fill="#4F001B"/>
<path d="M14.1508 13.6274V13.6274H14.1508C13.0266 13.5267 12.0297 14.3152 11.9242 15.3885V15.3885C11.8198 16.4516 12.6293 17.3949 13.7372 17.5105L13.7342 17.5417L17.8055 17.9062L18.1569 14.3297C18.1882 14.2209 18.2107 14.1082 18.2221 13.9919V13.9919C18.3276 12.9186 17.5017 11.9669 16.3774 11.8663H16.3774C15.2531 11.7656 14.2563 12.5541 14.1508 13.6274H14.1508H14.1508Z" fill="#4F001B"/>
<path d="M28.3315 107.492L28.7556 110.344V110.352L28.8957 111.301L29.1229 112.824V112.826L29.2176 113.468L29.3596 114.422L30.6281 114.397L31.0067 114.388L31.2055 114.384L31.1866 113.542L31.1393 111.308L31.0541 107.438H31.037L30.6584 107.445L29.1457 107.476L28.767 107.483L28.3315 107.492Z" fill="#FFD5AE"/>
<path d="M25.3799 117.35C25.3912 117.786 25.768 118.131 26.2224 118.122L26.8283 118.109L27.2069 118.102L28.7196 118.073L29.1002 118.066L29.8916 118.049L30.4955 116.788L30.6148 117.328V117.33L30.77 118.031L30.9916 118.028L32.154 118.004L31.6694 113.56L31.1866 113.542L31.0105 113.534L30.6318 113.52L29.2195 113.468H29.2176L29.1191 113.464L28.7405 113.449L28.5833 113.444L28.6117 114.706L27.2183 115.665L26.8377 115.927L25.7226 116.696C25.5029 116.847 25.3742 117.091 25.3799 117.35L25.3799 117.35H25.3799Z" fill="#0C0C0C"/>
<path d="M43.0117 107.286L44.0625 109.986L44.0641 109.993L44.4128 110.892L44.9747 112.334L44.9751 112.336L45.2108 112.944L45.5625 113.847L46.7962 113.565L47.1642 113.479L47.3576 113.435L47.1512 112.616L46.6064 110.443L45.6597 106.679L45.643 106.682L45.2747 106.766L43.8035 107.104L43.4352 107.188L43.0117 107.286Z" fill="#FFD5AE"/>
<path d="M42.3281 117.517C42.4364 117.941 42.8816 118.201 43.3235 118.1L43.9126 117.964L44.281 117.88L45.7525 117.545L46.1227 117.46L46.8923 117.283L47.2009 115.928L47.438 116.432L47.4384 116.433L47.7466 117.087L47.9622 117.038L49.0928 116.779L47.6275 112.535L47.1517 112.616L46.9781 112.644L46.6049 112.707L45.2132 112.943L45.2114 112.944L45.1144 112.96L44.7412 113.023L44.5864 113.05L44.8957 114.276L43.7484 115.498L43.4351 115.831L42.5169 116.808C42.3362 117.001 42.2649 117.266 42.3281 117.517H42.3281H42.3281Z" fill="#0C0C0C"/>
<path d="M31.4747 53.923L30.1577 59.2365C34.1286 61.3366 38.0523 62.0265 39.7565 59.5221L41.9867 54.8595L31.4747 53.923H31.4747Z" fill="#FFD5AE"/>
<path d="M39.433 59.5653C39.2057 61.0209 35.9081 58.1352 30.2138 59.1021L26.332 71.4548V110.52L33.6104 110.829L31.8312 90.1384L35.4704 80.4878L34.3382 89.7523L42.4373 110.829H48.3059L42.1018 92.0685L43.0722 75.5467C43.0722 75.5467 45.3366 69.0615 41.2931 63.8116L39.433 59.5653H39.433Z" fill="#0C0C0C"/>
<path d="M40.5649 58.4844L30.4073 56.1411L30.3411 53.0641C30.3411 53.0641 28.5702 51.4809 30.3503 48.6722L34.8005 41.6505L35.2127 40.3267L38.6666 39.7446L42.371 43.5107L42.9893 53.0189L40.5649 58.4844L40.5649 58.4844Z" fill="#B3003F"/>
<path d="M27.4188 38.3464L24.0955 43.7404L21.6945 42.9896L25.9186 37.4662C25.8369 37.2334 25.8219 36.9763 25.8918 36.721C26.0831 36.0217 26.832 35.6028 27.5645 35.7855C28.297 35.9681 28.7357 36.683 28.5444 37.3823C28.4013 37.9056 27.9459 38.2717 27.4188 38.3464Z" fill="#FFD5AE"/>
<path d="M38.1167 45.764L38.5798 43.7481C38.5798 43.7481 38.2188 42.4411 35.7258 42.5192C33.2328 42.5973 24.7322 43.6878 24.7322 43.6878L25.634 42.3387L25.887 41.0417L23.4603 40.353L22.2927 41.1684L21.9612 42.0168L22.1767 42.2941L21.5593 42.8112C20.9402 44.2637 21.6267 45.9242 23.118 46.5815L23.7257 46.9876L24.5553 47.2512L25.4612 46.9846L38.1167 45.7639L38.1167 45.764H38.1167V45.764Z" fill="#B3003F"/>
<path d="M46.6565 66.0636L44.4575 60.1684L46.6018 58.8928L48.3265 65.5305C48.5659 65.6201 48.782 65.7742 48.9422 65.9892C49.3811 66.5782 49.2368 67.3952 48.6199 67.8142C48.003 68.2332 47.1471 68.0954 46.7082 67.5065C46.3798 67.0658 46.3781 66.4974 46.6565 66.0636Z" fill="#FFD5AE"/>
<path d="M39.3051 44.0392L41.1305 42.9336C41.1305 42.9336 42.5404 42.81 43.317 45.0729C44.0936 47.3358 46.1836 56.7026 46.1836 56.7026L46.9874 57.821L47.0503 58.1609L47.7549 59.1166L47.5015 59.4622L48.4588 59.9668L44.8829 61.9373L43.6897 60.0696L43.8883 59.1412L43.2806 58.7351L42.7371 58.0813L42.6894 57.1774L39.3051 44.0392L39.3051 44.0392V44.0392Z" fill="#B3003F"/>
<path d="M34.2367 37.6648L36.3415 39.362L34.2298 33.1064L33.9166 33.3283C33.59 33.5596 33.4254 33.9452 33.4897 34.3285L34.2367 37.6648L34.2367 37.6648Z" fill="#0C0C0C"/>
<path d="M36.9273 39.0661C38.873 39.0661 40.4502 37.5603 40.4502 35.7029C40.4502 33.8454 38.873 32.3397 36.9273 32.3397C34.9817 32.3397 33.4044 33.8454 33.4044 35.7029C33.4044 37.5603 34.9817 39.0661 36.9273 39.0661Z" fill="#FFD5AE"/>
<path d="M39.3252 42.3923C39.3252 42.3923 37.3555 42.4886 35.2419 42.0984C35.0822 41.6345 35.0776 41.121 35.2434 40.6587C35.0997 41.0185 33.9166 42.3923 33.9166 42.3923C34.0951 40.8818 34.0763 39.7029 34.8742 38.7328C36.1444 37.1907 34.5252 35.5302 33.5714 33.8893C33.4685 33.4394 33.6835 32.9767 34.1027 32.7477C34.104 32.2567 36.5752 30.7576 38.2429 31.6628C39.6666 30.9681 42.7365 32.8702 43.0589 34.6143C44.7672 35.7121 45.3733 42.1756 43.4256 41.381L39.3252 42.3923L39.3252 42.3923Z" fill="#0C0C0C"/>
</svg>
