<svg width="34" height="30" viewBox="0 0 34 30" fill="none" xmlns="http://www.w3.org/2000/svg">
<path d="M32.2165 4.2335C30.8238 1.37534 26.812 -0.963148 22.1454 0.398373C19.9155 1.04249 17.9699 2.4238 16.6266 4.31664C15.2832 2.4238 13.3377 1.04249 11.1078 0.398373C6.43077 -0.942362 2.42935 1.37534 1.03665 4.2335C-0.917285 8.23491 -0.106608 12.7352 3.4479 17.6097C6.2333 21.424 10.2139 25.2903 15.9926 29.7802C16.1752 29.9226 16.4002 30 16.6318 30C16.8634 30 17.0884 29.9226 17.271 29.7802C23.0393 25.3007 27.0303 21.4656 29.8157 17.6097C33.3598 12.7352 34.1705 8.23491 32.2165 4.2335Z" fill="white"/>
</svg>
