<svg width="64" height="62" viewBox="0 0 64 62" fill="none" xmlns="http://www.w3.org/2000/svg">
<ellipse cx="31.8824" cy="31" rx="30.8824" ry="30" stroke="white" stroke-width="2"/>
<path d="M29.1824 6.03594C28.7313 6.31968 28.6333 6.486 28.4862 7.22958C28.2508 8.50148 27.8488 8.81457 26.1131 9.157C25.4266 9.29398 24.701 9.48965 24.4951 9.59728C23.1222 10.2919 22.4554 11.8965 22.9065 13.4521C23.1124 14.1957 23.3576 14.6066 24.2499 15.7122C25.0736 16.7297 25.6816 17.8744 26.015 19.0192C26.2111 19.6845 26.2406 20.0269 26.2406 21.3184C26.2406 23.2164 26.1033 23.735 24.9952 26.0635C23.74 28.715 23.2791 30.3195 23.181 32.3742C23.0438 35.2017 23.5831 36.5225 25.2109 37.3737C25.6326 37.5987 25.7503 37.6085 27.937 37.6379L30.212 37.6672L30.1924 43.5963L30.163 49.5155L29.5256 49.7405C28.3587 50.1319 27.4957 50.6504 26.5838 51.5114C26.2602 51.8147 25.917 52.0495 25.711 52.0887C25.5345 52.1278 25.2207 52.3137 25.005 52.4996C23.9557 53.4389 24.1715 55.0728 25.4168 55.6989C25.9366 55.9533 25.9464 55.9533 28.2508 55.9533C30.4474 55.9533 30.5749 55.9435 30.7808 55.7576C31.075 55.4837 31.075 54.9554 30.7808 54.6814C30.5749 54.4955 30.4474 54.4857 28.3489 54.4857C26.319 54.4857 26.1131 54.4662 25.966 54.3096C25.7404 54.0552 25.7601 53.7422 26.015 53.566C26.2111 53.4291 26.9368 53.4095 31.9772 53.4095C37.0175 53.4095 37.7432 53.4291 37.9393 53.566C38.2041 53.7422 38.2237 54.1042 37.9785 54.3194C37.8216 54.4662 37.5078 54.4857 35.6447 54.4857C33.605 54.4857 33.4775 54.4955 33.2716 54.6814C32.9774 54.9554 32.9774 55.4837 33.2716 55.7576C33.4775 55.9435 33.605 55.9533 35.7525 55.9533C37.9785 55.9533 38.0275 55.9533 38.5179 55.7087C39.7828 55.0728 39.9986 53.4486 38.9493 52.4996C38.7336 52.3137 38.4198 52.1278 38.2433 52.0887C38.0373 52.0398 37.6647 51.7854 37.2627 51.4136C36.3507 50.5722 35.2622 49.9754 33.9188 49.5546C33.7521 49.5057 33.7423 49.1339 33.7423 43.5865V37.6672L36.0271 37.6379L38.3021 37.6085L38.9199 37.2759C40.3712 36.4834 40.9007 35.0941 40.7733 32.3742C40.6752 30.3293 40.2045 28.6758 38.9885 26.1516C38.5767 25.3004 38.1354 24.234 37.9981 23.7937C37.8412 23.2849 37.6843 22.9425 37.5667 22.8838C36.9685 22.5609 36.3213 23.011 36.4389 23.6665C36.5664 24.3318 36.8998 25.1928 37.6647 26.7973C38.9591 29.4977 39.2827 30.7402 39.2827 32.9612C39.2827 34.7125 39.2239 35.0158 38.763 35.5246C38.1354 36.2192 38.41 36.1899 31.9772 36.1899C25.6326 36.1899 25.8287 36.2094 25.2403 35.6028C24.7598 35.1039 24.6814 34.7516 24.6716 33.059C24.6716 30.7305 24.9756 29.5368 26.2896 26.7876C27.5644 24.1166 27.8193 23.0795 27.7311 20.9074C27.6428 18.5593 26.8682 16.5732 25.358 14.7632C24.6029 13.863 24.3087 13.276 24.2597 12.5618C24.2303 12.0824 24.2597 11.9063 24.446 11.5932C24.7598 11.0453 25.1619 10.8496 26.5053 10.5854C27.8586 10.3213 28.4273 10.0669 29.0059 9.4603C29.4766 8.97111 29.9179 8.11013 29.9179 7.6405V7.32742H31.9772H34.0364V7.6405C34.0364 8.11013 34.4777 8.97111 34.9484 9.4603C35.5368 10.0669 36.0663 10.3017 37.5078 10.5952C38.9689 10.8887 39.322 11.0844 39.5769 11.7791C39.9005 12.6205 39.6358 13.501 38.7336 14.5871C37.3411 16.2601 36.4586 18.1484 36.3213 19.7529C36.2722 20.3204 36.2919 20.4085 36.4782 20.5748C36.7429 20.8194 37.2332 20.8194 37.4686 20.5748C37.5765 20.4672 37.7236 20.066 37.8118 19.6062C38.1256 18.0995 38.8218 16.7395 39.979 15.3698C40.6164 14.6262 40.8517 14.1859 41.0576 13.3739C41.4597 11.7986 40.8223 10.2821 39.4494 9.58749C39.2435 9.47987 38.5669 9.30376 37.9589 9.18635C36.1546 8.84392 35.7035 8.4917 35.4681 7.23936C35.3897 6.84801 35.2524 6.44687 35.1543 6.32946C34.7425 5.88919 34.5758 5.85983 31.9575 5.85983C29.7217 5.85983 29.4472 5.8794 29.1824 6.03594ZM32.2713 43.4789V49.3003H31.9772H31.683V43.4789V37.6574H31.9772H32.2713V43.4789ZM33.909 51.1103C34.3208 51.2473 34.8602 51.4821 35.1053 51.6288L35.5564 51.893L33.7619 51.9223C32.7813 51.9321 31.173 51.9321 30.1826 51.9223L28.3979 51.893L28.7902 51.6582C30.3101 50.7679 32.2517 50.5624 33.909 51.1103Z" fill="white"/>
</svg>
